<svg width="512" height="512" xmlns="http://www.w3.org/2000/svg">

 <g>
  <title>background</title>
  <rect fill="none" id="canvas_background" height="402" width="582" y="-1" x="-1"/>
 </g>
 <g>
  <title>Layer 1</title>
  <circle id="svg_3" r="244.4" fill="#007bff" cy="256" cx="256"/>
  <path id="svg_5" fill="#FFFFFF" d="m219.899994,364c-7.900009,-0.100006 -15.5,-2 -22.800003,-5.200012c-25,-11.099976 -38.799988,-34.599976 -39.599991,-56.199982c-0.399994,-11.800018 -0.300003,-71.400009 -0.199997,-81.200012c0.199997,-30.099991 21.099991,-55 48.399994,-62.599991c11.699997,-3.300003 61.599991,-3.900009 73.699997,0.099991c18.899994,6.200012 39.100006,22.200012 44.399994,43.200012c4.100006,16.5 1.400024,30.5 12,32c11.200012,1.5 14.5,0.899994 20.300018,1.5c5.899994,0.599991 8.799988,5.799988 8.799988,10.799988c0.5,58.900024 -0.100006,65.700012 -6,78.600006c-11,24 -33.600006,37.399994 -54.299988,38.799988c-3.100006,0.200012 -6.300018,0.200012 -9.399994,0.200012c-0.700012,0 -68.100006,0.100006 -75.300018,0zm77,-54.100006c18.100006,0 17.5,-24.700012 0.399994,-24.700012c-23.899994,0 -47.800003,0 -71.699982,0c-19,0 -17.600006,24.5 -1.400009,24.700012c9.5,0 72.000015,0 72.699997,0zm-34.799988,-75.099991c14.100006,-1.800003 15.5,-24.5 -3.699982,-24.600006c-3.600021,0 -31.800018,-0.099991 -35.400024,0.199997c-16.100006,1.400009 -14.600006,24.5 1.199997,24.600006c0.699997,0 34.900009,0.199997 37.900009,-0.199997z"/>
  <path id="svg_7" fill="#FFFFFF" d="m255.300003,474.100006c-58.5,0 -113.5,-22.799988 -154.899994,-64.199982c-41.400009,-41.400024 -64.200008,-96.400024 -64.200008,-154.900024s22.799999,-113.5 64.100002,-154.900002c41.399994,-41.399998 96.399994,-64.199997 154.899994,-64.199997s113.500015,22.799999 154.899979,64.199997c41.400024,41.400002 64.200012,96.400002 64.200012,154.899986s-22.799988,113.500015 -64.200012,154.900009s-96.299988,64.200012 -154.799973,64.200012zm0,-422.200005c-112,0 -203.100002,91.099998 -203.100002,203.099998s91.100002,203.100006 203.100002,203.100006s202.999985,-91.100006 202.999985,-203.100006s-91.099976,-203.099998 -202.999985,-203.099998z"/>
  <path d="m374.563446,50.607552c16.748749,7.933613 27.610352,9.629616 37.90506,13.222691c20.112885,7.019833 28.996033,12.514553 37.023529,16.748737c5.230377,2.758812 6.849548,3.549637 7.052094,4.407562c0.452881,1.918404 2.898926,4.291458 4.407562,7.933617c3.200287,7.726189 14.532867,46.564812 14.985718,48.483192c0.202515,0.857941 0.881531,0.881516 1.763031,2.644547l4.407562,13.222687l8.815125,17.630264" id="svg_10" stroke-opacity="null" stroke-width="null" stroke="null" fill="none"/>
 </g>
</svg>