<svg xmlns="http://www.w3.org/2000/svg" viewBox="0 0 384 512"><title>Artboard 1</title><path d="M149.9,349.1l-.2-.2L116.9,320l32.8-28.9a8.83,8.83,0,0,0,.8-12.4l-.2-.2-17.4-18.6a8.73,8.73,0,0,0-12.4-.4L62.8,313.6a8.77,8.77,0,0,0,0,12.8l57.7,54.1a8.92,8.92,0,0,0,6,2.4,8.63,8.63,0,0,0,6.4-2.8l17.4-18.6a8.82,8.82,0,0,0-.4-12.4Zm220-251.2L286,14A48,48,0,0,0,252.1-.1H48A48.16,48.16,0,0,0,0,48V464a48,48,0,0,0,48,48H336a48,48,0,0,0,48-48V131.9a48.23,48.23,0,0,0-14.1-34ZM256,51.9,332.1,128H256ZM336,464H48V48H208V152a23.94,23.94,0,0,0,24,24H336ZM209.6,214a8.74,8.74,0,0,0-10.9,6L144,408.1a8.7,8.7,0,0,0,6,10.9l24.4,7.1a8.78,8.78,0,0,0,10.9-6L240,231.9a8.7,8.7,0,0,0-6-10.9Zm24.5,76.9.2.2L267.1,320l-32.8,28.9a8.83,8.83,0,0,0-.8,12.4l.2.2,17.4,18.6a8.82,8.82,0,0,0,12.4.4l57.7-54.1a8.77,8.77,0,0,0,0-12.8l-57.7-54.1a8.73,8.73,0,0,0-12.4.4l-17.4,18.6A8.82,8.82,0,0,0,234.1,290.9Z" fill="#007bff"/></svg>