<svg aria-hidden="true" focusable="false" data-prefix="fas" data-icon="laptop-code" role="img" xmlns="http://www.w3.org/2000/svg" width="640" height="512"><rect id="backgroundrect" width="100%" height="100%" x="0" y="0" fill="none" stroke="none"/><g class="currentLayer" style=""><title>Layer 1</title><path fill="#007bff" d="M254.31571304798126,261.6499938964844 c6.25,6.25 16.3799991607666,6.25 22.6299991607666,0 l11.3100004196167,-11.3100004196167 c6.25,-6.25 6.25,-16.3799991607666 0,-22.6299991607666 L252.5357142686844,192 l35.709999084472656,-35.720001220703125 c6.25,-6.25 6.25,-16.3799991607666 0,-22.6299991607666 l-11.3100004196167,-11.3100004196167 c-6.25,-6.25 -16.3799991607666,-6.25 -22.6299991607666,0 l-58.34000015258789,58.34000015258789 c-6.25,6.25 -6.25,16.3799991607666 0,22.6299991607666 l58.349998474121094,58.34000015258789 zm96.01000213623047,-11.300000190734863 l11.3100004196167,11.3100004196167 c6.25,6.25 16.3799991607666,6.25 22.6299991607666,0 l58.34000015258789,-58.34000015258789 c6.25,-6.25 6.25,-16.3799991607666 0,-22.6299991607666 l-58.34000015258789,-58.34000015258789 c-6.25,-6.25 -16.3799991607666,-6.25 -22.6299991607666,0 l-11.3100004196167,11.3100004196167 c-6.25,6.25 -6.25,16.3799991607666 0,22.6299991607666 L386.0357142686844,192 l-35.709999084472656,35.720001220703125 c-6.25,6.25 -6.25,16.3799991607666 0,22.6299991607666 zM623.2857142686844,416 H380.82572281360626 c-0.7400000095367432,19.809999465942383 -14.710000038146973,32 -32.7400016784668,32 H287.2857142686844 c-18.690000534057617,0 -33.02000045776367,-17.469999313354492 -32.77000045776367,-32 H15.285714268684387 c-8.800000190734863,0 -16,7.199999809265137 -16,16 v16 c0,35.20000076293945 28.799999237060547,64 64,64 h512 c35.20000076293945,0 64,-28.799999237060547 64,-64 v-16 c0,-8.800000190734863 -7.199999809265137,-16 -16,-16 zM575.2857142686844,48 c0,-26.399999618530273 -21.600000381469727,-48 -48,-48 H111.28571426868439 C84.88571274280548,0 63.28571426868439,21.600000381469727 63.28571426868439,48 v336 h512 V48 zm-64,272 H127.28571426868439 V64 h384 v256 z" id="svg_1" class="selected" fill-opacity="1"/></g></svg>